<?xml version="1.0"?>
<svg xmlns="http://www.w3.org/2000/svg" height="512px" viewBox="-3 0 471 472" width="512px" class=""><g><path d="m208.5 384c0 8.835938 7.164062 16 16 16h16c8.835938 0 16-7.164062 16-16v-16h-48zm0 0" fill="#006df0" data-original="#006DF0" class="" style="fill:#000000" data-old_color="#006df0"/><path d="m152.5 0c-35.347656 0-64 28.652344-64 64v234.328125c46.101562-17.019531 94.855469-25.730469 144-25.726563v-272.601562zm0 0" fill="#d80027" data-original="#D80027" class="" data-old_color="#d80027" style="fill:#B48991"/><path d="m312.5 0h-80v272.601562c49.144531-.003906 97.898438 8.707032 144 25.726563v-234.328125c0-35.347656-28.652344-64-64-64zm0 0" fill="#dc1c3f" data-original="#DC1C3F" class="active-path" style="fill:#C28CBE" data-old_color="#dc1c3f"/><path d="m336.5 64c-.027344-22.082031-17.917969-39.972656-40-40h-48v16h48c13.253906 0 24 10.746094 24 24v48h16zm0 0" fill="#f1f2f2" data-original="#F1F2F2" class=""/><path d="m320.5 128h16v32h-16zm0 0" fill="#f1f2f2" data-original="#F1F2F2" class=""/><path d="m400.5 160h-24v138.328125c-46.101562-17.019531-94.855469-25.730469-144-25.726563v95.398438h184c26.507812 0 48-21.492188 48-48v-96c0-35.347656-28.652344-64-64-64zm0 0" fill="#c41c3b" data-original="#C41C3B" class="" style="fill:#B87E89" data-old_color="#c41c3b"/><path d="m344.5 432h-104v-32h-16v32h-104c-22.082031.027344-39.972656 17.917969-40 40h16c0-13.253906 10.746094-24 24-24h224c13.253906 0 24 10.746094 24 24h16c-.027344-22.082031-17.917969-39.972656-40-40zm0 0" fill="#58595b" data-original="#58595B" class=""/><path d="m88.5 298.328125v-138.328125h-24c-35.347656 0-64 28.652344-64 64v96c0 26.507812 21.492188 48 48 48h184v-95.398438c-49.144531-.003906-97.898438 8.707032-144 25.726563zm0 0" fill="#bd0022" data-original="#BD0022" class="" style="fill:#806D7F" data-old_color="#bd0022"/></g> </svg>
